<svg width="22" height="30" viewBox="0 0 22 30" fill="none" xmlns="http://www.w3.org/2000/svg">
<path d="M17.5616 0.000291372C18.1305 0.000290589 18.6939 0.11367 19.2195 0.333943C19.745 0.554216 20.2224 0.87706 20.6244 1.284C21.0264 1.69094 21.345 2.174 21.5621 2.70553C21.7792 3.23706 21.8904 3.80663 21.8895 4.38166V24.9965C21.9132 25.5863 21.8187 26.1749 21.6117 26.727C21.4047 27.279 21.0895 27.7831 20.6849 28.2089C20.2804 28.6347 19.7949 28.9735 19.2575 29.2049C18.7202 29.4364 18.1421 29.5557 17.558 29.5557C16.9739 29.5557 16.3959 29.4364 15.8585 29.2049C15.3212 28.9735 14.8357 28.6347 14.4311 28.2089C14.0266 27.7831 13.7113 27.279 13.5043 26.727C13.2973 26.1749 13.2028 25.5863 13.2265 24.9965V15.613L13.1908 15.6779C12.6369 16.6878 11.9863 17.6404 11.2483 18.5219C10.0708 19.8825 8.68419 21.0426 7.14176 21.9577V23.7117C7.14176 24.6688 6.76555 25.5868 6.09588 26.2636C5.42621 26.9405 4.51794 27.3207 3.57088 27.3207C2.62383 27.3207 1.71556 26.9405 1.04589 26.2636C0.376217 25.5868 0 24.6688 0 23.7117L0 11.4409C0 10.4838 0.376217 9.56579 1.04589 8.88897C1.71556 8.21214 2.62383 7.8319 3.57088 7.8319C4.51794 7.8319 5.42621 8.21214 6.09588 8.88897C6.76555 9.56579 7.14176 10.4838 7.14176 11.4409V21.1637C8.38133 20.2261 9.48058 19.1127 10.4056 17.8578C11.8317 15.8837 12.7807 13.5996 13.1766 11.1883V4.38166C13.1765 3.80202 13.2903 3.22812 13.5113 2.69323C13.7322 2.15834 14.056 1.67308 14.4639 1.26556C14.8717 0.858049 15.3556 0.536379 15.8873 0.319189C16.419 0.101999 16.9881 -0.00639318 17.5616 0.000291372Z" fill="#231F20"/>
</svg>
